<svg width="2400" height="1350" viewBox="0 0 2400 1350" xmlns="http://www.w3.org/2000/svg">
  <defs>
    <linearGradient id="bg" x1="0%" y1="0%" x2="80%" y2="100%">
      <stop offset="0%" stop-color="#07121f"/>
      <stop offset="45%" stop-color="#0b1f2f"/>
      <stop offset="100%" stop-color="#111b2c"/>
    </linearGradient>
    <linearGradient id="glow-a" x1="0%" y1="0%" x2="100%" y2="100%">
      <stop offset="0%" stop-color="#58f5ff" stop-opacity="0.85"/>
      <stop offset="100%" stop-color="#3b7bff" stop-opacity="0.05"/>
    </linearGradient>
    <linearGradient id="glow-b" x1="100%" y1="0%" x2="0%" y2="100%">
      <stop offset="0%" stop-color="#ff9d6c" stop-opacity="0.9"/>
      <stop offset="100%" stop-color="#f94ddb" stop-opacity="0.05"/>
    </linearGradient>
    <pattern id="grid" width="120" height="120" patternUnits="userSpaceOnUse">
      <path d="M 120 0 L 0 0 0 120" fill="none" stroke="rgba(255,255,255,0.07)" stroke-width="1"/>
    </pattern>
    <radialGradient id="orb" cx="50%" cy="50%" r="50%">
      <stop offset="0%" stop-color="#4ef0ff" stop-opacity="0.75"/>
      <stop offset="100%" stop-color="#4ef0ff" stop-opacity="0"/>
    </radialGradient>
  </defs>
  <rect width="2400" height="1350" fill="url(#bg)"/>
  <rect width="2400" height="1350" fill="url(#grid)"/>
  <circle cx="600" cy="850" r="520" fill="url(#orb)"/>
  <circle cx="1950" cy="320" r="420" fill="url(#orb)" opacity="0.35"/>
  <path d="M200 900 C 550 650 850 620 1200 800" fill="none" stroke="url(#glow-a)" stroke-width="8" stroke-linecap="round" opacity="0.7"/>
  <path d="M900 350 C 1300 450 1550 650 1900 500" fill="none" stroke="url(#glow-b)" stroke-width="10" stroke-linecap="round" opacity="0.55"/>
  <g filter="url(#blur)">
    <rect x="300" y="230" width="380" height="220" rx="32" fill="rgba(12,18,30,0.9)" stroke="rgba(78,240,255,0.35)" stroke-width="2"/>
    <rect x="1480" y="780" width="480" height="260" rx="38" fill="rgba(12,18,30,0.8)" stroke="rgba(255,138,92,0.35)" stroke-width="2"/>
  </g>
</svg>
